<svg xmlns="http://www.w3.org/2000/svg" height="512px" viewBox="0 0 512 512" width="512px">
  <!-- White background circle -->
  <circle cx="256" cy="256" r="256" fill="#ffffff"/>
  <!-- Filled icon centered and scaled -->
  <g transform="translate(128, 128) scale(0.5, 0.5)">
    <path d="M291-160q-55 0-93-39.5T160-295q0-56 38-95.5t93-39.5h458q55 0 93 39.5t38 95.5q0 56-38 95.5T749-160H291Zm-80-370q-55 0-93-39.5T80-665q0-56 38-95.5t93-39.5h458q55 0 93 39.5t38 95.5q0 56-38 95.5T669-530H211Z" fill="#000000" transform="translate(0, 960) scale(1, -1)"/>
  </g>
</svg>
